<?xml version="1.0" encoding="UTF-8"?>
<svg version="1.1" xmlns="http://www.w3.org/2000/svg" width="214" height="236">
<path d="M0 0 C70.62 0 141.24 0 214 0 C214 77.88 214 155.76 214 236 C143.38 236 72.76 236 0 236 C0 158.12 0 80.24 0 0 Z " fill="#1C1C1A" transform="translate(0,0)"/>
<path d="M0 0 C33.99 0 67.98 0 103 0 C100.01648232 2.23763826 97.11506677 4.23176521 93.95703125 6.1875 C92.48302856 7.10341919 92.48302856 7.10341919 90.97924805 8.0378418 C89.93422119 8.685354 88.88919434 9.33286621 87.8125 10 C79.87840835 14.93578094 71.97950004 19.91454467 64.15014648 25.01464844 C59.86409683 27.80317505 55.55553553 30.55195195 51.22583008 33.2722168 C48.03435991 35.27844475 44.8507175 37.29694032 41.66699219 39.31542969 C39.76975423 40.51379493 37.86897977 41.70656912 35.96582031 42.89550781 C32.80165466 44.87493514 29.65019035 46.87342434 26.5 48.875 C25.50210449 49.49342773 24.50420898 50.11185547 23.47607422 50.74902344 C22.08026123 51.64282715 22.08026123 51.64282715 20.65625 52.5546875 C19.82931641 53.07530762 19.00238281 53.59592773 18.15039062 54.13232422 C14.64474374 57.17707884 13.21684867 60.00422684 12.71121216 64.65786743 C12.55591518 67.98056268 12.50641518 71.29091899 12.48828125 74.6171875 C12.47033005 75.82948029 12.45237885 77.04177307 12.43388367 78.290802 C12.37982276 82.15216626 12.3458973 86.01340716 12.3125 89.875 C12.27932334 92.49741298 12.24483336 95.11980969 12.20898438 97.7421875 C12.12409814 104.1613693 12.05726598 110.58051478 12 117 C8.37 117 4.74 117 1 117 C1.52851563 118.54429688 2.05703125 120.08859375 2.6015625 121.6796875 C3.27728205 123.74438613 3.95169197 125.8095137 4.625 127.875 C4.975625 128.88820312 5.32625 129.90140625 5.6875 130.9453125 C7.96342784 138.04620735 8.18069888 142.89410578 6 150 C5.67974854 151.17393311 5.67974854 151.17393311 5.35302734 152.37158203 C4.72775769 154.63444004 4.05979304 156.87951584 3.375 159.125 C3.14554687 159.89070312 2.91609375 160.65640625 2.6796875 161.4453125 C2.12385188 163.29809792 1.56252924 165.14923586 1 167 C4.63 167 8.26 167 12 167 C12.268125 168.381875 12.53625 169.76375 12.8125 171.1875 C13.84716762 175.70885578 14.71756454 179.45120451 18.75 182.1875 C20.46686335 183.1843884 22.2310215 184.09882227 24 185 C23.44570313 184.61328125 22.89140625 184.2265625 22.3203125 183.828125 C21.59585937 183.30734375 20.87140625 182.7865625 20.125 182.25 C19.40570312 181.73953125 18.68640625 181.2290625 17.9453125 180.703125 C15.86271037 178.87980266 14.95341604 177.58216844 14 175 C13.9222654 172.66796188 13.91032272 170.33160941 14 168 C16 170 16 170 17.1875 173.25 C20.14356907 180.37891089 27.61261778 184.19656717 34 187.9375 C41.28201507 192.29081211 48.41323961 196.83599819 55.5 201.5 C63.13001033 206.51182624 70.79561614 211.43566565 78.62915039 216.12426758 C82.2486708 218.29351617 85.79801389 220.51525448 89.28125 222.8984375 C98.48328515 229.2669674 98.48328515 229.2669674 109.375 230.7421875 C116.97619422 228.59304032 123.55858333 223.87052802 130.125 219.625 C132.08587051 218.36708307 134.04680994 217.10927357 136.0078125 215.8515625 C137.00329102 215.2112207 137.99876953 214.57087891 139.02441406 213.91113281 C143.67316945 210.92537164 148.33708435 207.96357548 153 205 C154.81511626 203.84376898 156.63022037 202.68751889 158.4453125 201.53125 C162.28869627 199.0848384 166.13853831 196.64895674 169.9921875 194.21875 C170.97703125 193.59613281 171.961875 192.97351563 172.9765625 192.33203125 C174.84724049 191.14962158 176.71952368 189.96974591 178.59375 188.79296875 C191.72530024 180.90087269 191.72530024 180.90087269 199 168 C199.33 168 199.66 168 200 168 C200.3534876 172.41859499 200.33044097 175.77330345 197.62109375 179.4453125 C193.94087771 182.9747727 189.38408933 185.44513415 185 188 C194.13598683 183.79607543 194.13598683 183.79607543 200 176 C200.84181325 173.00196334 201.44148069 170.0718562 202 167 C205.63 167 209.26 167 213 167 C212.47148437 165.37191406 211.94296875 163.74382812 211.3984375 162.06640625 C210.72281769 159.8987927 210.04840193 157.7308036 209.375 155.5625 C209.024375 154.49322266 208.67375 153.42394531 208.3125 152.32226562 C206.2020606 145.4211288 205.66826875 140.82261754 208 134 C208.43319911 132.46843682 208.8628584 130.93586822 209.2890625 129.40234375 C209.73127218 127.91313762 210.17657963 126.4248478 210.625 124.9375 C210.85445312 124.16728516 211.08390625 123.39707031 211.3203125 122.60351562 C211.87743114 120.73484685 212.43830942 118.86729961 213 117 C209.37 117 205.74 117 202 117 C201.9906543 115.37054443 201.98130859 113.74108887 201.97167969 112.06225586 C201.93173742 106.00322366 201.8659653 99.94469692 201.79248047 93.88598633 C201.7642957 91.26626083 201.74306884 88.64645068 201.72900391 86.02661133 C201.70754102 82.2555821 201.66086959 78.48556795 201.609375 74.71484375 C201.60753204 72.96445045 201.60753204 72.96445045 201.60565186 71.17869568 C201.48762719 64.59104452 201.04266095 60.30009826 197 55 C195.23186609 53.28782019 195.23186609 53.28782019 193.2265625 52.18359375 C192.13093994 51.51408691 192.13093994 51.51408691 191.01318359 50.83105469 C190.22508301 50.37118164 189.43698242 49.91130859 188.625 49.4375 C186.90049181 48.39022782 185.17655553 47.34201342 183.453125 46.29296875 C182.55529297 45.75333496 181.65746094 45.21370117 180.73242188 44.65771484 C176.23338773 41.92822576 171.80740168 39.08593483 167.375 36.25 C165.52351933 35.07148601 163.67195515 33.89310322 161.8203125 32.71484375 C157.76827389 30.13168642 153.72235388 27.53920515 149.6796875 24.94140625 C147.53658046 23.56491401 145.39335153 22.18861152 143.25 20.8125 C142.20626221 20.14234863 141.16252441 19.47219727 140.0871582 18.78173828 C132.88857901 14.17351619 125.63725069 9.66315868 118.30371094 5.27270508 C113.202806 2.202806 113.202806 2.202806 111 0 C144.99 0 178.98 0 214 0 C214 77.88 214 155.76 214 236 C143.38 236 72.76 236 0 236 C0 158.12 0 80.24 0 0 Z " fill="#FEFEFE" transform="translate(0,0)"/>
<path d="M0 0 C3.2892941 1.58569273 6.20406755 3.59122223 9.1875 5.6875 C10.95349967 6.88158109 12.72046138 8.07424034 14.48828125 9.265625 C15.39529785 9.88373047 16.30231445 10.50183594 17.23681641 11.13867188 C21.72539714 14.16225727 26.29999111 17.04707474 30.875 19.9375 C32.71243173 21.10386402 34.54966997 22.27053292 36.38671875 23.4375 C37.30501465 24.02015625 38.22331055 24.6028125 39.16943359 25.203125 C44.01153018 28.2769417 48.84926646 31.35760788 53.6875 34.4375 C55.42055313 35.54039567 57.15362539 36.64326129 58.88671875 37.74609375 C59.71494141 38.27412598 60.54316406 38.8021582 61.39648438 39.34619141 C63.25364489 40.52589934 65.11476749 41.69937954 66.97851562 42.86865234 C67.95884766 43.48562988 68.93917969 44.10260742 69.94921875 44.73828125 C70.84084717 45.29684814 71.73247559 45.85541504 72.65112305 46.4309082 C76.58862751 49.06123158 79.46603656 51.39810968 81 56 C81 72.5 81 89 81 106 C23.58 106 -33.84 106 -93 106 C-93 56 -93 56 -90 50 C-88.40039062 48.49951172 -88.40039062 48.49951172 -86.65625 47.4296875 C-85.99729736 47.01485107 -85.33834473 46.60001465 -84.65942383 46.17260742 C-83.94681396 45.74439697 -83.2342041 45.31618652 -82.5 44.875 C-81.74807373 44.40618408 -80.99614746 43.93736816 -80.22143555 43.4543457 C-78.62570524 42.4602869 -77.02623622 41.47220798 -75.42333984 40.48974609 C-72.30812611 38.57467112 -69.22063606 36.61751304 -66.1328125 34.65869141 C-63.76461888 33.15714103 -61.39244665 31.66204431 -59.01953125 30.16796875 C-53.6690903 26.79525553 -48.33416836 23.39837017 -43 20 C-39.33370605 17.66608067 -35.66693634 15.33290988 -32 13 C-31.08959961 12.42056641 -30.17919922 11.84113281 -29.24121094 11.24414062 C-26.62046289 9.57733357 -23.99799715 7.91326486 -21.375 6.25 C-20.58738281 5.74855469 -19.79976563 5.24710938 -18.98828125 4.73046875 C-17.89193359 4.03630859 -17.89193359 4.03630859 -16.7734375 3.328125 C-16.13841309 2.9249707 -15.50338867 2.52181641 -14.84912109 2.10644531 C-9.49335194 -1.09824782 -6.10750185 -1.61304779 0 0 Z " fill="#F6F6F6" transform="translate(113,11)"/>
<path d="M0 0 C33.99 0 67.98 0 103 0 C103 77.88 103 155.76 103 236 C69.01 236 35.02 236 0 236 C2.59300952 234.05524286 4.98386838 232.33609757 7.73046875 230.6875 C8.44170898 230.25783936 9.15294922 229.82817871 9.88574219 229.38549805 C10.64532227 228.92828369 11.40490234 228.47106934 12.1875 228 C18.97495799 223.88334244 25.6807238 219.66385194 32.33203125 215.33129883 C38.09389285 211.57964875 43.8849603 207.87589653 49.6875 204.1875 C50.60168701 203.60516602 51.51587402 203.02283203 52.45776367 202.42285156 C57.33248978 199.32009626 62.21735906 196.23485201 67.1171875 193.171875 C68.11274658 192.54643799 69.10830566 191.92100098 70.1340332 191.27661133 C72.0380093 190.08089212 73.94523769 188.89033069 75.85620117 187.70581055 C84.93889331 182.08948293 84.93889331 182.08948293 90 173 C90.37593066 171.0075675 90.71979545 169.0081326 91 167 C94.63 167 98.26 167 102 167 C101.20722656 164.55787109 101.20722656 164.55787109 100.3984375 162.06640625 C99.72281769 159.8987927 99.04840193 157.7308036 98.375 155.5625 C98.024375 154.49322266 97.67375 153.42394531 97.3125 152.32226562 C95.2020606 145.4211288 94.66826875 140.82261754 97 134 C97.43319911 132.46843682 97.8628584 130.93586822 98.2890625 129.40234375 C98.73127218 127.91313762 99.17657963 126.4248478 99.625 124.9375 C99.85445313 124.16728516 100.08390625 123.39707031 100.3203125 122.60351562 C100.87743114 120.73484685 101.43830942 118.86729961 102 117 C98.37 117 94.74 117 91 117 C90.9906543 115.37054443 90.98130859 113.74108887 90.97167969 112.06225586 C90.93173742 106.00322366 90.8659653 99.94469692 90.79248047 93.88598633 C90.7642957 91.26626083 90.74306884 88.64645068 90.72900391 86.02661133 C90.70754102 82.2555821 90.66086959 78.48556795 90.609375 74.71484375 C90.60814636 73.54791489 90.60691772 72.38098602 90.60565186 71.17869568 C90.48762719 64.59104452 90.04266095 60.30009826 86 55 C84.23186609 53.28782019 84.23186609 53.28782019 82.2265625 52.18359375 C81.49614746 51.73725586 80.76573242 51.29091797 80.01318359 50.83105469 C79.22508301 50.37118164 78.43698242 49.91130859 77.625 49.4375 C75.90049181 48.39022782 74.17655553 47.34201342 72.453125 46.29296875 C71.55529297 45.75333496 70.65746094 45.21370117 69.73242188 44.65771484 C65.23338773 41.92822576 60.80740168 39.08593483 56.375 36.25 C54.52351933 35.07148601 52.67195515 33.89310322 50.8203125 32.71484375 C46.76827389 30.13168642 42.72235388 27.53920515 38.6796875 24.94140625 C36.53658046 23.56491401 34.39335153 22.18861152 32.25 20.8125 C31.20626221 20.14234863 30.16252441 19.47219727 29.0871582 18.78173828 C21.88857901 14.17351619 14.63725069 9.66315868 7.30371094 5.27270508 C2.202806 2.202806 2.202806 2.202806 0 0 Z " fill="#FEFEFE" transform="translate(111,0)"/>
<path d="M0 0 C57.42 0 114.84 0 174 0 C170.77803602 9.66589193 164.40037858 12.86281491 156.0625 17.9375 C153.88881563 19.27782348 151.71564945 20.61898766 149.54296875 21.9609375 C148.44645996 22.63608398 147.34995117 23.31123047 146.22021484 24.00683594 C141.41145599 26.98323528 136.64136719 30.01883286 131.875 33.0625 C130.98603027 33.62888184 130.09706055 34.19526367 129.18115234 34.77880859 C124.46674641 37.78337936 119.75744629 40.79581972 115.05078125 43.8125 C113.57859131 44.75403931 113.57859131 44.75403931 112.07666016 45.71459961 C110.21419046 46.90583107 108.35308093 48.09919314 106.49365234 49.29516602 C104.00789501 50.88393016 101.50865776 52.44769535 99 54 C98.21189941 54.49870605 97.42379883 54.99741211 96.61181641 55.51123047 C91.94110725 58.32273488 88.58323495 60.02651405 83 59 C79.88376457 57.53087449 77.09576655 55.68349866 74.25 53.75 C72.55366221 52.63759863 70.85703981 51.52563117 69.16015625 50.4140625 C68.3005127 49.84333008 67.44086914 49.27259766 66.55517578 48.68457031 C62.63832145 46.10227575 58.66230105 43.61674771 54.6875 41.125 C45.03719743 35.03455564 35.40120391 28.92185526 25.78710938 22.77441406 C22.95388959 20.9706438 20.11038611 19.18393773 17.265625 17.3984375 C15.44765312 16.24520703 13.62993471 15.09157685 11.8125 13.9375 C10.96888916 13.41357666 10.12527832 12.88965332 9.25610352 12.34985352 C1.90537041 7.64973109 1.90537041 7.64973109 0 3 C0 2.01 0 1.02 0 0 Z " fill="#F7F7F7" transform="translate(20,167)"/>
<path d="M0 0 C3.96 0 7.92 0 12 0 C12.391875 1.546875 12.78375 3.09375 13.1875 4.6875 C14.57418466 9.31196251 16.11510788 11.96788908 20 15 C21.32215386 15.68857199 22.65377818 16.35975862 24 17 C23.44570313 16.61328125 22.89140625 16.2265625 22.3203125 15.828125 C21.23363281 15.04695312 21.23363281 15.04695312 20.125 14.25 C19.40570312 13.73953125 18.68640625 13.2290625 17.9453125 12.703125 C15.86271037 10.87980266 14.95341604 9.58216844 14 7 C13.9222654 4.66796188 13.91032272 2.33160941 14 0 C16 2 16 2 17.1875 5.25 C20.14356907 12.37891089 27.61261778 16.19656717 34 19.9375 C41.28201507 24.29081211 48.41323961 28.83599819 55.5 33.5 C63.13001033 38.51182624 70.79561614 43.43566565 78.62915039 48.12426758 C82.2486708 50.29351617 85.79801389 52.51525448 89.28125 54.8984375 C98.48328515 61.2669674 98.48328515 61.2669674 109.375 62.7421875 C116.97619422 60.59304032 123.55858333 55.87052802 130.125 51.625 C132.08587051 50.36708307 134.04680994 49.10927357 136.0078125 47.8515625 C137.00329102 47.2112207 137.99876953 46.57087891 139.02441406 45.91113281 C143.67316945 42.92537164 148.33708435 39.96357548 153 37 C154.81511626 35.84376898 156.63022037 34.68751889 158.4453125 33.53125 C162.28869627 31.0848384 166.13853831 28.64895674 169.9921875 26.21875 C170.97703125 25.59613281 171.961875 24.97351563 172.9765625 24.33203125 C174.84724049 23.14962158 176.71952368 21.96974591 178.59375 20.79296875 C191.72530024 12.90087269 191.72530024 12.90087269 199 0 C199.33 0 199.66 0 200 0 C200.35459328 4.43241594 200.32713217 7.78826595 197.6015625 11.46484375 C194.69507846 14.25081504 191.22188337 16.18007599 187.75390625 18.19140625 C184.92118175 19.91099685 184.92118175 19.91099685 182.6796875 22.375 C179.29231139 25.69324599 175.59368947 27.97337033 171.5625 30.4375 C169.85122035 31.50075159 168.1402969 32.56457665 166.4296875 33.62890625 C165.53862305 34.18078613 164.64755859 34.73266602 163.72949219 35.30126953 C159.19334718 38.12439091 154.6916863 41.00127199 150.1875 43.875 C148.34767591 45.04560382 146.50783197 46.21617643 144.66796875 47.38671875 C140.74934361 49.88225344 136.83621185 52.38617732 132.92578125 54.89453125 C131.93360596 55.52955566 130.94143066 56.16458008 129.91918945 56.81884766 C128.02162804 58.03352818 126.12554632 59.25052449 124.23120117 60.47021484 C123.37115479 61.02016113 122.5111084 61.57010742 121.625 62.13671875 C120.87476562 62.61842529 120.12453125 63.10013184 119.3515625 63.59643555 C118.57554688 64.05961182 117.79953125 64.52278809 117 65 C116.18570526 65.51692413 115.37141052 66.03384827 114.53244019 66.56643677 C109.66052254 68.54359749 105.33774283 68.39584825 100.12939453 68.34057617 C99.04587204 68.34101425 97.96234955 68.34145233 96.84599304 68.34190369 C93.27474776 68.33981843 89.70397549 68.31649901 86.1328125 68.29296875 C83.65274309 68.28737188 81.17267035 68.28310221 78.69259644 68.28010559 C72.17251389 68.26866407 65.65263257 68.2392025 59.13262939 68.20599365 C51.30572189 68.16796377 43.4787071 68.15612833 35.6517334 68.13863373 C23.76768241 68.10956511 11.88407275 68.05207237 0 68 C0 45.56 0 23.12 0 0 Z " fill="#FEFEFE" transform="translate(0,168)"/>
<path d="M0 0 C2 2 2 2 3.1875 5.25 C6.14356907 12.37891089 13.61261778 16.19656717 20 19.9375 C27.28201507 24.29081211 34.41323961 28.83599819 41.5 33.5 C49.13001033 38.51182624 56.79561614 43.43566565 64.62915039 48.12426758 C68.2486708 50.29351617 71.79801389 52.51525448 75.28125 54.8984375 C84.48328515 61.2669674 84.48328515 61.2669674 95.375 62.7421875 C102.97619422 60.59304032 109.55858333 55.87052802 116.125 51.625 C118.08587051 50.36708307 120.04680994 49.10927357 122.0078125 47.8515625 C123.00329102 47.2112207 123.99876953 46.57087891 125.02441406 45.91113281 C129.67316945 42.92537164 134.33708435 39.96357548 139 37 C140.81511626 35.84376898 142.63022037 34.68751889 144.4453125 33.53125 C148.28869627 31.0848384 152.13853831 28.64895674 155.9921875 26.21875 C156.97703125 25.59613281 157.961875 24.97351563 158.9765625 24.33203125 C160.84724049 23.14962158 162.71952368 21.96974591 164.59375 20.79296875 C177.72530024 12.90087269 177.72530024 12.90087269 185 0 C185.33 0 185.66 0 186 0 C186.35459328 4.43241594 186.32713217 7.78826595 183.6015625 11.46484375 C180.69507846 14.25081504 177.22188337 16.18007599 173.75390625 18.19140625 C170.92118175 19.91099685 170.92118175 19.91099685 168.6796875 22.375 C165.29231139 25.69324599 161.59368947 27.97337033 157.5625 30.4375 C155.85122035 31.50075159 154.1402969 32.56457665 152.4296875 33.62890625 C151.53862305 34.18078613 150.64755859 34.73266602 149.72949219 35.30126953 C145.19334718 38.12439091 140.6916863 41.00127199 136.1875 43.875 C134.34767591 45.04560382 132.50783197 46.21617643 130.66796875 47.38671875 C126.74934361 49.88225344 122.83621185 52.38617732 118.92578125 54.89453125 C117.43751831 55.84706787 117.43751831 55.84706787 115.91918945 56.81884766 C114.02162804 58.03352818 112.12554632 59.25052449 110.23120117 60.47021484 C96.14913578 69.47482172 96.14913578 69.47482172 89 68 C79.82393584 64.26272883 71.47358322 57.87427695 63.21289062 52.45117188 C59.69187595 50.14215695 56.15927064 47.85115625 52.625 45.5625 C51.58702271 44.88960937 51.58702271 44.88960937 50.52807617 44.203125 C45.10774521 40.69706046 39.65148372 37.25001963 34.1875 33.8125 C14.04309093 21.11528242 14.04309093 21.11528242 9 16 C7.81204953 15.13785873 6.60457456 14.30166095 5.375 13.5 C2.66650576 11.58607473 0.87916949 10.32130696 0 7 C-0.0777346 4.66796188 -0.08967728 2.33160941 0 0 Z " fill="#ABABAA" transform="translate(14,168)"/>
<path d="M0 0 C2.20413355 1.21045419 4.26692588 2.53232238 6.34619141 3.94628906 C7.11866211 4.44475342 7.89113281 4.94321777 8.68701172 5.45678711 C11.06572588 6.99665329 13.42430994 8.56451909 15.78369141 10.13378906 C17.17111264 11.03256481 18.56036494 11.92852193 19.95166016 12.82128906 C22.72632964 14.60324789 25.49390428 16.39543577 28.25634766 18.19628906 C33.30575297 21.4812556 38.38712017 24.71531977 43.47119141 27.94628906 C44.38610352 28.52789795 45.30101562 29.10950684 46.24365234 29.70874023 C49.09000832 31.51759996 51.93679184 33.32578501 54.78369141 35.13378906 C58.78420565 37.67464751 62.78410951 40.21646332 66.78369141 42.75878906 C67.69723389 43.33862549 68.61077637 43.91846191 69.55200195 44.51586914 C71.23459473 45.58543524 72.91486869 46.65866209 74.59228516 47.73632812 C75.9281861 48.58823287 77.27265907 49.42711797 78.63134766 50.2421875 C82.18098804 52.42473665 83.9346184 54.41543246 85.78369141 58.13378906 C86.14445496 60.86103821 86.14445496 60.86103821 86.12426758 63.84204102 C86.12404099 64.96282547 86.12381439 66.08360992 86.12358093 67.23835754 C86.10809708 68.43748276 86.09261322 69.63660797 86.07666016 70.87207031 C86.07241531 72.10797409 86.06817047 73.34387787 86.063797 74.61723328 C86.0498692 77.89054988 86.02295118 81.16341814 85.98968506 84.43658447 C85.95890388 87.78157421 85.94553059 91.12658353 85.93017578 94.47167969 C85.89711783 101.02589087 85.84692604 107.57980331 85.78369141 114.13378906 C85.45369141 114.13378906 85.12369141 114.13378906 84.78369141 114.13378906 C84.77822296 113.15779251 84.77822296 113.15779251 84.77264404 112.16207886 C84.73078569 105.38080315 84.66141605 98.60020214 84.57617188 91.81933594 C84.54797208 89.28978223 84.52675268 86.76014058 84.51269531 84.23046875 C84.49125312 80.59101361 84.44459281 76.95261491 84.39306641 73.31347656 C84.39122345 71.62096268 84.39122345 71.62096268 84.38934326 69.89425659 C84.27375618 63.67693499 83.97254128 59.85178243 79.78369141 55.13378906 C75.73332574 51.41798787 70.99945181 48.65318918 66.34619141 45.75878906 C64.63499856 44.6862797 62.92407155 43.61334609 61.21337891 42.54003906 C60.32231445 41.981875 59.43125 41.42371094 58.51318359 40.84863281 C53.98677499 38.00484981 49.4791819 35.13164652 44.97119141 32.25878906 C43.1248457 31.08299452 41.27849146 29.90721339 39.43212891 28.73144531 C38.50754883 28.14250488 37.58296875 27.55356445 36.63037109 26.94677734 C31.78655237 23.86185472 26.94129311 20.77919611 22.09619141 17.69628906 C20.36311189 16.59343484 18.63003876 15.4905706 16.89697266 14.38769531 C15.65488037 13.59903076 15.65488037 13.59903076 14.38769531 12.79443359 C12.52116391 11.60409545 10.65939281 10.40628008 8.80078125 9.20361328 C7.81932129 8.57084473 6.83786133 7.93807617 5.82666016 7.28613281 C4.48704224 6.41782837 4.48704224 6.41782837 3.12036133 5.53198242 C-2.05659287 2.43424795 -7.35114593 2.28180295 -13.21630859 3.13378906 C-17.31602229 4.87349615 -20.8600796 7.25093808 -24.52880859 9.75878906 C-25.56569824 10.4373999 -26.60258789 11.11601074 -27.67089844 11.81518555 C-29.81773857 13.22069545 -31.95837825 14.63572091 -34.09277344 16.06005859 C-38.79444369 19.18152077 -43.56986885 22.18311046 -48.34130859 25.19628906 C-50.14404235 26.34500854 -51.94612521 27.49475015 -53.74755859 28.64550781 C-57.5144989 31.05012573 -61.28563254 33.44796953 -65.06005859 35.84082031 C-69.665984 38.76119929 -74.26637737 41.69003759 -78.86083984 44.62841797 C-80.33076077 45.56783883 -81.80190905 46.50534533 -83.27490234 47.43994141 C-84.96920216 48.51678894 -86.65566584 49.60594005 -88.34130859 50.69628906 C-89.21013672 51.25445312 -90.07896484 51.81261719 -90.97412109 52.38769531 C-94.09621534 54.81901261 -96.44430309 57.58977806 -98.21630859 61.13378906 C-98.33533671 62.82842164 -98.39345546 64.52750029 -98.42163086 66.22607422 C-98.44157608 67.28702301 -98.4615213 68.3479718 -98.48207092 69.44107056 C-98.49878342 70.59005829 -98.51549591 71.73904602 -98.53271484 72.92285156 C-98.55349594 74.09641205 -98.57427704 75.26997253 -98.59568787 76.47909546 C-98.66122843 80.23893211 -98.72008935 83.99884029 -98.77880859 87.75878906 C-98.82198952 90.30306738 -98.86560366 92.84733839 -98.90966797 95.39160156 C-99.01691441 101.63892113 -99.11867239 107.88631232 -99.21630859 114.13378906 C-99.87630859 114.13378906 -100.53630859 114.13378906 -101.21630859 114.13378906 C-101.29246351 106.69570484 -101.34495273 99.25772143 -101.38110352 91.81933594 C-101.39617645 89.28967532 -101.4166382 86.76004077 -101.44262695 84.23046875 C-101.47907476 80.59140583 -101.49605029 76.95268891 -101.50927734 73.31347656 C-101.5247612 72.18513397 -101.54024506 71.05679138 -101.55619812 69.89425659 C-101.5575979 63.34209258 -101.25491324 58.58457037 -96.74584961 53.46386719 C-91.80707862 49.42478007 -86.56773786 46.00159987 -81.15380859 42.63378906 C-79.18366282 41.39435464 -77.21361342 40.15476701 -75.24365234 38.91503906 C-74.24188965 38.28726563 -73.24012695 37.65949219 -72.20800781 37.01269531 C-67.53021123 34.07485277 -62.87394284 31.10344974 -58.21630859 28.13378906 C-56.39478768 26.97478767 -54.5731727 25.81593411 -52.75146484 24.65722656 C-48.00049366 21.6341117 -43.25288871 18.60574853 -38.50634766 15.57568359 C-35.73009194 13.80737693 -32.94807615 12.0484203 -30.16552734 10.29003906 C-27.1763587 8.39748515 -24.21935917 6.47350496 -21.29833984 4.47753906 C-20.72349854 4.0951709 -20.14865723 3.71280273 -19.55639648 3.31884766 C-18.11523118 2.35807079 -16.68831119 1.37601051 -15.26318359 0.39160156 C-10.22774814 -1.68712948 -5.13785165 -2.00805218 0 0 Z " fill="#E1E1E1" transform="translate(114.21630859375,2.8662109375)"/>
<path d="M0 0 C2.55186737 0.04639759 3.77475405 0.17181663 5.7890625 1.7734375 C10.40337937 7.30522089 10.77802989 11.52101042 10.1875 18.5 C8.553108 23.14511411 6.47561323 26.00691091 2.1875 28.5 C-1.44897735 28.5 -3.19191016 27.98268099 -6.0625 25.75 C-9.72973091 21.03498883 -10.24540564 16.80039031 -10.140625 10.94140625 C-9.35336211 5.08379545 -5.72442446 0.75074419 0 0 Z " fill="#F1F1F1" transform="translate(106.8125,182.5)"/>
<path d="M0 0 C2.70552388 2.19823815 4.44778333 3.89556667 6 7 C6.40710593 11.23390162 6.25575965 13.51588352 4.25 17.3125 C1.65846166 20.40794858 -0.18967516 21.72148849 -4.18359375 22.3359375 C-8.28583452 22.40703353 -10.43361845 22.35398847 -14 20.125 C-17.64316904 16.25413289 -17.38919717 12.85398854 -17.35546875 7.70703125 C-17 5 -17 5 -14.6875 1.875 C-9.82047367 -1.52059977 -5.59910119 -1.4636247 0 0 Z " fill="#E4E4E4" transform="translate(79,133)"/>
<path d="M0 0 C1.28583984 -0.020625 2.57167969 -0.04125 3.89648438 -0.0625 C18.90010117 -0.12377051 18.90010117 -0.12377051 24.9375 3.25 C26.19946289 5.35839844 26.19946289 5.35839844 26.9375 7.25 C23.80251708 9.10776765 21.56278568 9.45140476 17.9375 9.25 C20.9375 7.25 20.9375 7.25 23.9375 6.25 C11.65061232 1.75479719 -1.42474935 2.56570257 -14.0625 5.25 C-14.3925 5.58 -14.7225 5.91 -15.0625 6.25 C-4.41628054 8.21869049 6.13841647 8.81666824 16.9375 9.25 C16.9375 9.58 16.9375 9.91 16.9375 10.25 C12.5625563 10.30826088 8.18771302 10.34368457 3.8125 10.375 C1.95625 10.40013672 1.95625 10.40013672 0.0625 10.42578125 C-1.13632813 10.43222656 -2.33515625 10.43867187 -3.5703125 10.4453125 C-4.67004395 10.45578613 -5.76977539 10.46625977 -6.90283203 10.47705078 C-10.24706942 10.23673701 -12.93958695 9.43909337 -16.0625 8.25 C-16.01815192 12.41336671 -15.94812048 16.57529865 -15.85498047 20.73779297 C-15.82687608 22.15173448 -15.80560933 23.56583002 -15.79150391 24.97998047 C-15.76992544 27.02130384 -15.72320914 29.06079599 -15.671875 31.1015625 C-15.65092773 32.32697754 -15.62998047 33.55239258 -15.60839844 34.81494141 C-14.82780328 39.72682597 -12.67387755 42.9191109 -8.86328125 46.06640625 C-4.99534266 47.70097444 -1.41449328 47.97085006 2.75 48.1875 C3.51892578 48.25517578 4.28785156 48.32285156 5.08007812 48.39257812 C11.64218498 48.77467549 16.57647527 47.08246665 21.62036133 42.83178711 C23.25178009 41.1297925 23.25178009 41.1297925 23.625 37.75 C24.9375 34.25 24.9375 34.25 26.734375 33.3046875 C28.16204154 32.85137732 29.59311264 32.4086539 31.02734375 31.9765625 C33.18016437 31.32620108 33.18016437 31.32620108 34.9375 29 C36.24046195 25.41685465 36.46962487 23.04138971 35.9375 19.25 C34.14707649 16.07412972 32.11296488 13.69477049 28.625 12.375 C27.7896875 12.313125 27.7896875 12.313125 26.9375 12.25 C26.9375 12.91 26.9375 13.57 26.9375 14.25 C27.72125 14.518125 28.505 14.78625 29.3125 15.0625 C31.9375 16.25 31.9375 16.25 33.9375 19.25 C34.60615672 26.27089552 34.60615672 26.27089552 32.1875 29.8125 C29.9375 31.25 29.9375 31.25 27.6875 31 C27.11 30.7525 26.5325 30.505 25.9375 30.25 C26.741875 29.899375 27.54625 29.54875 28.375 29.1875 C31.28067158 27.4029732 31.28067158 27.4029732 31.875 23.75 C32.2718558 20.13461063 32.2718558 20.13461063 29.9375 17.25 C28.30254293 16.19895617 26.63866376 15.19011682 24.9375 14.25 C25.2675 12.93 25.5975 11.61 25.9375 10.25 C30.80581281 10.70286631 33.42309226 11.83321469 36.9375 15.25 C39.25314736 19.01984229 39.14627006 21.71349239 38.5390625 25.9921875 C37.50961795 29.85594691 35.93669632 31.58404771 32.9375 34.25 C29.625 35.125 29.625 35.125 26.9375 35.25 C26.6590625 36.796875 26.6590625 36.796875 26.375 38.375 C24.97103072 43.15817811 22.12384954 45.69640416 17.9375 48.25 C10.45864506 51.58228713 2.53549437 52.93837002 -5.25390625 50.078125 C-14.48847018 45.76643931 -14.48847018 45.76643931 -17.0625 40.25 C-17.3146484 37.3830998 -17.41358656 34.74552911 -17.35546875 31.88671875 C-17.35122391 31.09473587 -17.34697906 30.30275299 -17.34260559 29.48677063 C-17.32588163 26.96999373 -17.28824225 24.45403276 -17.25 21.9375 C-17.23494499 20.22592307 -17.22125801 18.51433351 -17.20898438 16.80273438 C-17.17599885 12.61817767 -17.12426098 8.43422693 -17.0625 4.25 C-16.4025 3.92 -15.7425 3.59 -15.0625 3.25 C-15.7225 2.59 -16.3825 1.93 -17.0625 1.25 C-11.60495215 -0.56918262 -5.71046117 0.02242695 0 0 Z " fill="#1A1A19" transform="translate(103.0625,59.75)"/>
<path d="M0 0 C6.51510954 -0.65835096 10.00158426 1.28346972 15.375 4.8125 C16.16100586 5.31096436 16.94701172 5.80942871 17.75683594 6.32299805 C20.18170777 7.86634108 22.59169246 9.43096623 25 11 C26.39271344 11.8966349 27.78591953 12.79250518 29.1796875 13.6875 C31.94950577 15.47083044 34.71272993 17.26390341 37.47265625 19.0625 C42.52206156 22.34746654 47.60342876 25.5815307 52.6875 28.8125 C53.60241211 29.39410889 54.51732422 29.97571777 55.45996094 30.57495117 C58.30631692 32.38381089 61.15310043 34.19199595 64 36 C68.00051425 38.54085844 72.0004181 41.08267426 76 43.625 C76.91354248 44.20483643 77.82708496 44.78467285 78.76831055 45.38208008 C80.45090333 46.45164617 82.13117728 47.52487303 83.80859375 48.60253906 C85.14449469 49.45444381 86.48896766 50.29332891 87.84765625 51.10839844 C91.39729663 53.29094759 93.150927 55.2816434 95 59 C95.36076355 61.72724915 95.36076355 61.72724915 95.34057617 64.70825195 C95.34034958 65.82903641 95.34012299 66.94982086 95.33988953 68.10456848 C95.32440567 69.3036937 95.30892181 70.50281891 95.29296875 71.73828125 C95.28872391 72.97418503 95.28447906 74.21008881 95.28010559 75.48344421 C95.26617779 78.75676082 95.23925977 82.02962908 95.20599365 85.30279541 C95.17521247 88.64778515 95.16183918 91.99279447 95.14648438 95.33789062 C95.11342643 101.89210181 95.06323464 108.44601425 95 115 C94.67 115 94.34 115 94 115 C93.99453156 114.02400345 93.99453156 114.02400345 93.98895264 113.02828979 C93.94709428 106.24701409 93.87772464 99.46641308 93.79248047 92.68554688 C93.76428068 90.15599317 93.74306127 87.62635151 93.72900391 85.09667969 C93.70756171 81.45722454 93.6609014 77.81882585 93.609375 74.1796875 C93.60814636 73.05134491 93.60691772 71.92300232 93.60565186 70.76046753 C93.49006478 64.54314593 93.18884987 60.71799337 89 56 C84.94963433 52.28419881 80.21576041 49.51940012 75.5625 46.625 C73.85130715 45.55249064 72.14038015 44.47955702 70.4296875 43.40625 C69.53862305 42.84808594 68.64755859 42.28992187 67.72949219 41.71484375 C63.20308359 38.87106074 58.69549049 35.99785746 54.1875 33.125 C52.3411543 31.94920546 50.49480005 30.77342433 48.6484375 29.59765625 C47.72385742 29.00871582 46.79927734 28.41977539 45.84667969 27.81298828 C41.00286097 24.72806566 36.1576017 21.64540705 31.3125 18.5625 C29.57942049 17.45964578 27.84634735 16.35678154 26.11328125 15.25390625 C25.2826416 14.72684082 24.45200195 14.19977539 23.59619141 13.65673828 C21.75441073 12.48142103 19.91874141 11.29650216 18.08740234 10.10498047 C17.12398926 9.48123535 16.16057617 8.85749023 15.16796875 8.21484375 C14.29809326 7.64757568 13.42821777 7.08030762 12.53198242 6.49584961 C8.11629632 3.8871418 4.06714316 2.70704323 -1 2 C-0.67 1.34 -0.34 0.68 0 0 Z " fill="#E6E6E6" transform="translate(105,2)"/>
<path d="M0 0 C2 2 2 2 3.1875 5.25 C6.14347612 12.37868674 13.61258456 16.19695182 20 19.9375 C28.52170296 25.02846964 36.83540861 30.40435306 45.11914062 35.87280273 C46.50456055 36.78461304 46.50456055 36.78461304 47.91796875 37.71484375 C48.79114746 38.28960449 49.66432617 38.86436523 50.56396484 39.45654297 C52.6891089 40.80302129 54.82985946 42.01360127 57.05078125 43.19140625 C60 45 60 45 60.92553711 46.93334961 C62.27190261 49.52298468 63.66252417 50.36185176 66.140625 51.875 C66.96433594 52.38546875 67.78804688 52.8959375 68.63671875 53.421875 C69.49910156 53.94265625 70.36148438 54.4634375 71.25 55 C72.94306215 56.04109149 74.63577824 57.08274601 76.328125 58.125 C77.12927734 58.61484375 77.93042969 59.1046875 78.75585938 59.609375 C81.55103595 61.34146005 84.28068135 63.15157425 87 65 C86.01 65.495 86.01 65.495 85 66 C82.35250858 64.5813677 79.84864287 63.10038893 77.3125 61.5 C76.52157959 61.00878662 75.73065918 60.51757324 74.91577148 60.01147461 C67.41772611 55.32619304 60.01909303 50.48649055 52.62695312 45.63647461 C46.39409331 41.54837225 40.12534541 37.52586128 33.8125 33.5625 C14.06689877 21.13943106 14.06689877 21.13943106 9 16 C7.81204953 15.13785873 6.60457456 14.30166095 5.375 13.5 C2.66650576 11.58607473 0.87916949 10.32130696 0 7 C-0.0777346 4.66796188 -0.08967728 2.33160941 0 0 Z " fill="#585858" transform="translate(14,168)"/>
<path d="M0 0 C0.33 0 0.66 0 1 0 C1 17.16 1 34.32 1 52 C-2.63 52 -6.26 52 -10 52 C-9.47148437 53.54429688 -8.94296875 55.08859375 -8.3984375 56.6796875 C-7.72271795 58.74438613 -7.04830803 60.8095137 -6.375 62.875 C-6.024375 63.88820312 -5.67375 64.90140625 -5.3125 65.9453125 C-3.03657216 73.04620735 -2.81930112 77.89410578 -5 85 C-5.32025146 86.17393311 -5.32025146 86.17393311 -5.64697266 87.37158203 C-6.27224231 89.63444004 -6.94020696 91.87951584 -7.625 94.125 C-7.85445313 94.89070313 -8.08390625 95.65640625 -8.3203125 96.4453125 C-8.87614812 98.29809792 -9.43747076 100.14923586 -10 102 C-6.37 102 -2.74 102 1 102 C1 102.33 1 102.66 1 103 C-2.96 103 -6.92 103 -11 103 C-11 85.84 -11 68.68 -11 51 C-7.37 51 -3.74 51 0 51 C0 34.17 0 17.34 0 0 Z " fill="#F1F1F1" transform="translate(11,65)"/>
<path d="M0 0 C0.33 0 0.66 0 1 0 C1 16.83 1 33.66 1 51 C4.63 51 8.26 51 12 51 C12 68.16 12 85.32 12 103 C8.04 103 4.08 103 0 103 C0 102.67 0 102.34 0 102 C3.63 102 7.26 102 11 102 C10.47148437 100.37191406 9.94296875 98.74382812 9.3984375 97.06640625 C8.72281769 94.8987927 8.04840193 92.7308036 7.375 90.5625 C6.8490625 88.95858398 6.8490625 88.95858398 6.3125 87.32226562 C4.2020606 80.4211288 3.66826875 75.82261754 6 69 C6.43319911 67.46843682 6.8628584 65.93586822 7.2890625 64.40234375 C7.73127218 62.91313762 8.17657963 61.4248478 8.625 59.9375 C8.96917969 58.78217773 8.96917969 58.78217773 9.3203125 57.60351562 C9.87743114 55.73484685 10.43830942 53.86729961 11 52 C7.37 52 3.74 52 0 52 C0 34.84 0 17.68 0 0 Z " fill="#F1F1F1" transform="translate(202,65)"/>
<path d="M0 0 C-0.99 1.485 -0.99 1.485 -2 3 C-2.71005782 8.32543363 -1.15563939 10.79248081 2 15 C3.11375 16.3921875 3.11375 16.3921875 4.25 17.8125 C6.54901543 21.99999238 6.37361439 25.32982017 6 30 C-10.4148674 20.50134255 -10.4148674 20.50134255 -12.59765625 12.92578125 C-12.88483804 9.05987255 -11.96851027 6.50241258 -9.625 3.5625 C-6.14787726 0.1681659 -4.72585948 -0.12436472 0 0 Z " fill="#1C1C1A" transform="translate(108,28)"/>
<path d="M0 0 C-1.39796892 2.79593783 -3.13474989 2.95173777 -6 4 C-6.66 4.33 -7.32 4.66 -8 5 C-12.11600571 4.94416685 -16.21566856 4.62132118 -20.32128906 4.33081055 C-22.35948323 4.18858278 -24.39824483 4.06152117 -26.4375 3.93554688 C-27.72398438 3.84724609 -29.01046875 3.75894531 -30.3359375 3.66796875 C-31.51720215 3.58828857 -32.6984668 3.5086084 -33.91552734 3.42651367 C-36.76128502 3.03300895 -38.56688969 2.47239561 -41 1 C-32.26693124 -7.73306876 -10.404883 -2.58582891 0 0 Z " fill="#E0E0E0" transform="translate(128,65)"/>
<path d="M0 0 C3 0.5 3 0.5 4.6640625 2.15234375 C6.35276811 5.11992291 6.40027253 7.16334446 6.375 10.5625 C6.38273437 11.60535156 6.39046875 12.64820313 6.3984375 13.72265625 C6 16.5 6 16.5 4.6640625 18.33984375 C2.00824578 20.19143428 0.13070269 20.02178378 -3 19.5 C-6.601216 15.898784 -6.35398247 11.71089612 -6.3984375 6.90234375 C-5.69883463 2.68414997 -4.23400008 0.70566668 0 0 Z " fill="#1A1A18" transform="translate(73,133.5)"/>
<path d="M0 0 C5.28 0 10.56 0 16 0 C15.67 1.65 15.34 3.3 15 5 C14.34 5 13.68 5 13 5 C13 4.01 13 3.02 13 2 C11.02 2 9.04 2 7 2 C7 4.31 7 6.62 7 9 C8.32 9 9.64 9 11 9 C11 8.34 11 7.68 11 7 C11.66 7 12.32 7 13 7 C13 9.31 13 11.62 13 14 C12.34 13.67 11.68 13.34 11 13 C11 12.34 11 11.68 11 11 C9.68 11 8.36 11 7 11 C7 13.97 7 16.94 7 20 C9.94091587 19.81584568 9.94091587 19.81584568 13 19 C14.43637698 17.04836882 14.43637698 17.04836882 15 15 C15.33 15 15.66 15 16 15 C16 16.98 16 18.96 16 21 C10.72 21 5.44 21 0 21 C0.66 20.67 1.32 20.34 2 20 C2 13.73 2 7.46 2 1 C1.34 0.67 0.68 0.34 0 0 Z " fill="#EFEFEF" transform="translate(137,133)"/>
<path d="M0 0 C4.95 0 9.9 0 15 0 C15 1.65 15 3.3 15 5 C14.34 5 13.68 5 13 5 C13 4.01 13 3.02 13 2 C11.02 2 9.04 2 7 2 C7 4.31 7 6.62 7 9 C8.32 9 9.64 9 11 9 C11.33 8.34 11.66 7.68 12 7 C12 8.98 12 10.96 12 13 C11.67 12.34 11.34 11.68 11 11 C9.68 11 8.36 11 7 11 C7 13.64 7 16.28 7 19 C11.47883696 18.55296014 11.47883696 18.55296014 15 16 C15 17.65 15 19.3 15 21 C10.05 21 5.1 21 0 21 C0.66 20.67 1.32 20.34 2 20 C2 13.73 2 7.46 2 1 C1.34 0.67 0.68 0.34 0 0 Z " fill="#E8E8E8" transform="translate(161,133)"/>
<path d="M0 0 C1 1 1 1 1.0625 3.5625 C1.041875 4.366875 1.02125 5.17125 1 6 C0.01 6.495 0.01 6.495 -1 7 C-1.33 5.68 -1.66 4.36 -2 3 C-4.31 3 -6.62 3 -9 3 C-9.97551509 5.92654527 -10.16478088 7.94654996 -10.1875 11 C-10.20167969 11.86625 -10.21585938 12.7325 -10.23046875 13.625 C-10.16255938 16.26721537 -10.16255938 16.26721537 -8 19 C-5.57478506 19.58189266 -5.57478506 19.58189266 -2.875 19.6875 C-1.50988281 19.78611328 -1.50988281 19.78611328 -0.1171875 19.88671875 C0.58148438 19.92410156 1.28015625 19.96148437 2 20 C1.67 20.66 1.34 21.32 1 22 C-2.61930698 23.20643566 -5.19231005 23.32268559 -9 23 C-13.00255838 20.88544085 -15.36245253 19.22518146 -17 15 C-17.33797952 10.15562688 -16.65229503 6.82395162 -13.625 3 C-9.08089609 -0.46217441 -5.48154996 -0.17682419 0 0 Z " fill="#E3E3E3" transform="translate(54,132)"/>
<path d="M0 0 C1.134375 0.020625 2.26875 0.04125 3.4375 0.0625 C1.4575 1.0525 1.4575 1.0525 -0.5625 2.0625 C-0.44410948 7.11636681 -0.3198513 12.17004269 -0.19018555 17.22363281 C-0.14690984 18.94234305 -0.10522959 20.66109424 -0.06518555 22.37988281 C-0.00730435 24.852339 0.05633836 27.32459047 0.12109375 29.796875 C0.13780624 30.56368591 0.15451874 31.33049683 0.17173767 32.12054443 C0.26762865 35.58423984 0.51665862 38.72616251 1.4375 42.0625 C-2.55197973 38.27760897 -4.47452387 36.34290774 -4.69189453 30.70849609 C-4.69848523 29.33432523 -4.69926814 27.96011848 -4.6953125 26.5859375 C-4.69626923 25.86008453 -4.69722595 25.13423157 -4.69821167 24.38638306 C-4.69889134 22.85491855 -4.69705189 21.32345114 -4.69287109 19.79199219 C-4.68750431 17.43938799 -4.69283116 15.08697338 -4.69921875 12.734375 C-4.69855823 11.24739541 -4.69727762 9.76041594 -4.6953125 8.2734375 C-4.69733673 7.56617523 -4.69936096 6.85891296 -4.70144653 6.13021851 C-4.67215741 0.08196767 -4.67215741 0.08196767 0 0 Z " fill="#7F7F7F" transform="translate(86.5625,61.9375)"/>
<path d="M0 0 C4.95 0 9.9 0 15 0 C15 1.65 15 3.3 15 5 C14.34 5 13.68 5 13 5 C12.67 4.34 12.34 3.68 12 3 C9.47266765 2.34444881 9.47266765 2.34444881 7 2 C7 4.64 7 7.28 7 10 C8.32 10 9.64 10 11 10 C11.33 9.34 11.66 8.68 12 8 C12 9.98 12 11.96 12 14 C11.67 13.34 11.34 12.68 11 12 C9.68 12 8.36 12 7 12 C7 14.64 7 17.28 7 20 C7.66 20.33 8.32 20.66 9 21 C6.03 21 3.06 21 0 21 C0.66 20.67 1.32 20.34 2 20 C2 13.73 2 7.46 2 1 C1.34 0.67 0.68 0.34 0 0 Z " fill="#EAEAEA" transform="translate(115,133)"/>
<path d="M0 0 C5.28 0 10.56 0 16 0 C15.67 1.65 15.34 3.3 15 5 C14.34 3.68 13.68 2.36 13 1 C11.02 1 9.04 1 7 1 C7 3.97 7 6.94 7 10 C8.32 10 9.64 10 11 10 C11.33 9.01 11.66 8.02 12 7 C12.33 7 12.66 7 13 7 C13 9.31 13 11.62 13 14 C12.34 13.34 11.68 12.68 11 12 C9.68 11.67 8.36 11.34 7 11 C7 13.97 7 16.94 7 20 C7.66 20.33 8.32 20.66 9 21 C6.03 21 3.06 21 0 21 C0.66 20.67 1.32 20.34 2 20 C2 13.73 2 7.46 2 1 C1.34 0.67 0.68 0.34 0 0 Z " fill="#EAEAEA" transform="translate(92,133)"/>
<path d="M0 0 C0.99 0.33 1.98 0.66 3 1 C2.57847656 1.48210938 2.15695313 1.96421875 1.72265625 2.4609375 C1.17480469 3.09257813 0.62695312 3.72421875 0.0625 4.375 C-0.48277344 5.00148438 -1.02804688 5.62796875 -1.58984375 6.2734375 C-4.04677227 9.28164361 -4.14197706 11.27347425 -4.20532227 15.09228516 C-4.22526749 16.15323395 -4.24521271 17.21418274 -4.26576233 18.30728149 C-4.28247482 19.45626923 -4.29918732 20.60525696 -4.31640625 21.7890625 C-4.33718735 22.96262299 -4.35796844 24.13618347 -4.37937927 25.3453064 C-4.44491983 29.10514304 -4.50378076 32.86505122 -4.5625 36.625 C-4.60568092 39.16927832 -4.64929507 41.71354933 -4.69335938 44.2578125 C-4.80060582 50.50513207 -4.9023638 56.75252326 -5 63 C-5.66 63 -6.32 63 -7 63 C-7.07615491 55.56191578 -7.12864414 48.12393237 -7.16479492 40.68554688 C-7.17986786 38.15588626 -7.20032961 35.62625171 -7.22631836 33.09667969 C-7.26276616 29.45761677 -7.2797417 25.81889984 -7.29296875 22.1796875 C-7.30845261 21.05134491 -7.32393646 19.92300232 -7.33988953 18.76046753 C-7.34140051 11.68778314 -6.77068186 7.00816887 -1.8125 1.625 C-1.214375 1.08875 -0.61625 0.5525 0 0 Z " fill="#C4C4C4" transform="translate(20,54)"/>
<path d="M0 0 C0.66 0 1.32 0 2 0 C3.12256131 2.24512262 3.13413762 3.51456649 3.125 6 C3.12757812 6.70125 3.13015625 7.4025 3.1328125 8.125 C3 10 3 10 2 12 C1.6206653 17.02618483 2.01736753 19.89888036 5 24 C1.46491897 23.70540991 0.23796556 23.25118587 -2.25 20.625 C-5.09772043 16.35341936 -5.34316727 13.06171722 -5 8 C-3.64184747 4.72808708 -2.50104494 2.50104494 0 0 Z " fill="#F2F2F2" transform="translate(103,185)"/>
<path d="M0 0 C2.4375 0.875 2.4375 0.875 4.4375 3.875 C4.703125 5.8125 4.703125 5.8125 4.6875 7.875 C4.69265625 8.555625 4.6978125 9.23625 4.703125 9.9375 C4.4375 11.875 4.4375 11.875 2.4375 14.875 C-0.5625 15.25 -0.5625 15.25 -3.5625 14.875 C-5.62770632 11.77719052 -5.85727024 10.9209519 -5.875 7.375 C-5.89175781 6.6015625 -5.90851563 5.828125 -5.92578125 5.03125 C-5.30473005 1.3450106 -3.7284471 -0.18187547 0 0 Z " fill="#4E4E4D" transform="translate(128.5625,184.125)"/>
<path d="M0 0 C2.4375 0.875 2.4375 0.875 4.4375 3.875 C4.703125 5.8125 4.703125 5.8125 4.6875 7.875 C4.69265625 8.555625 4.6978125 9.23625 4.703125 9.9375 C4.4375 11.875 4.4375 11.875 2.4375 14.875 C-0.5625 15.25 -0.5625 15.25 -3.5625 14.875 C-5.62770632 11.77719052 -5.85727024 10.9209519 -5.875 7.375 C-5.89175781 6.6015625 -5.90851563 5.828125 -5.92578125 5.03125 C-5.30473005 1.3450106 -3.7284471 -0.18187547 0 0 Z " fill="#282827" transform="translate(86.5625,184.125)"/>
<path d="M0 0 C1.28583984 -0.020625 2.57167969 -0.04125 3.89648438 -0.0625 C18.90010117 -0.12377051 18.90010117 -0.12377051 24.9375 3.25 C26.19946289 5.35839844 26.19946289 5.35839844 26.9375 7.25 C23.80251708 9.10776765 21.56278568 9.45140476 17.9375 9.25 C20.9375 7.25 20.9375 7.25 23.9375 6.25 C14.45880124 2.78218338 5.43936435 3.18070954 -4.52148438 3.37695312 C-6.07899414 3.39338867 -6.07899414 3.39338867 -7.66796875 3.41015625 C-9.07792114 3.43541382 -9.07792114 3.43541382 -10.51635742 3.46118164 C-13.17890675 3.24034502 -14.7850675 2.60589323 -17.0625 1.25 C-11.60495215 -0.56918262 -5.71046117 0.02242695 0 0 Z " fill="#191918" transform="translate(103.0625,59.75)"/>
<path d="M0 0 C2.55186737 0.04639759 3.77475405 0.17181663 5.7890625 1.7734375 C10.40337937 7.30522089 10.77802989 11.52101042 10.1875 18.5 C8.553108 23.14511411 6.47561323 26.00691091 2.1875 28.5 C-1.44897735 28.5 -3.19191016 27.98268099 -6.0625 25.75 C-9.72973091 21.03498883 -10.24540564 16.80039031 -10.140625 10.94140625 C-9.35336211 5.08379545 -5.72442446 0.75074419 0 0 Z M-4.5625 3.125 C-7.89806189 6.64587088 -8.68823757 9.13311327 -9.125 13.9375 C-8.71658471 18.59343428 -7.14755001 21.59278569 -4.5 25.375 C-1.75394203 27.20570532 -0.02424317 27.07811377 3.1875 26.5 C6.9240348 23.65698439 7.96613574 22.03607545 8.63671875 17.3828125 C8.95688557 10.67210345 8.95688557 10.67210345 6.3359375 4.6640625 C4.29863217 2.30340067 4.29863217 2.30340067 1.25 1.4375 C-1.9052386 1.25114449 -1.9052386 1.25114449 -4.5625 3.125 Z " fill="#171717" transform="translate(106.8125,182.5)"/>
<path d="M0 0 C-0.15984375 0.55945313 -0.3196875 1.11890625 -0.484375 1.6953125 C-1.95448113 8.26624142 -1.64452796 14.22949739 2 20 C-0.25 20.3125 -0.25 20.3125 -3 20 C-5.8690335 17.75129807 -6.85882245 15.96400022 -7.38671875 12.359375 C-7.6721713 4.99666779 -7.6721713 4.99666779 -5.1875 1.3125 C-3 0 -3 0 0 0 Z " fill="#F5F5F5" transform="translate(69,134)"/>
<path d="M0 0 C3.76842665 0.21533867 4.99717333 0.99736177 7.8125 3.625 C9.71536882 6.14208597 10.03563388 7.22172192 10.5625 10.5 C9.89701944 14.64076792 8.68162523 16.79694764 6 20 C4 21.4375 4 21.4375 2 22 C-0.25 21.625 -0.25 21.625 -2 21 C-0.60624928 18.21249856 1.16244861 18.10733713 4 17 C6.41339891 15.01040592 6.41339891 15.01040592 6.375 11.125 C6.30568818 7.94243212 6.14673726 7.19075844 4.125 4.5625 C2.09294454 2.97582559 2.09294454 2.97582559 0 2 C0 1.34 0 0.68 0 0 Z " fill="#D7D7D7" transform="translate(130,72)"/>
<path d="M0 0 C3 1 3 1 4.25 2.625 C5.47613924 6.50777425 4.80994971 10.38010057 3 14 C2.85624578 17.37822416 2.92463652 19.77390955 4 23 C0.125 21.25 0.125 21.25 -1 19 C-1.23333333 12.46666667 -1.23333333 12.46666667 0 10 C0.06996014 8.29297265 0.08440154 6.58331997 0.0625 4.875 C0.05347656 3.96492187 0.04445313 3.05484375 0.03515625 2.1171875 C0.02355469 1.41851562 0.01195313 0.71984375 0 0 Z " fill="#353534" transform="translate(105,185)"/>
<path d="M0 0 C0.598125 0.20625 1.19625 0.4125 1.8125 0.625 C-0.1675 1.615 -0.1675 1.615 -2.1875 2.625 C-2.5175 13.515 -2.8475 24.405 -3.1875 35.625 C-6.44455794 30.73941309 -5.52050026 24.98228185 -5.50317383 19.26391602 C-5.50000608 17.06671919 -5.52350708 14.87085924 -5.54882812 12.67382812 C-5.55110039 11.2812517 -5.55180495 9.88867165 -5.55078125 8.49609375 C-5.55376221 7.22693115 -5.55674316 5.95776855 -5.55981445 4.65014648 C-5.43695068 3.65184814 -5.31408691 2.6535498 -5.1875 1.625 C-2.1875 -0.375 -2.1875 -0.375 0 0 Z " fill="#FAFAFA" transform="translate(88.1875,62.375)"/>
<path d="M0 0 C0.99 0 1.98 0 3 0 C2.78087133 3.83475164 2.05971606 4.94164113 -0.75 7.6875 C-6.06752939 11.47112668 -9.45763316 12.25656341 -16 12 C-15.67 11.34 -15.34 10.68 -15 10 C-13.62070406 9.54991396 -12.22019291 9.16383374 -10.8125 8.8125 C-6.16725432 7.39455537 -4.05900653 5.33771975 -1.2890625 1.42578125 C-0.65097656 0.72001953 -0.65097656 0.72001953 0 0 Z " fill="#CCCCCB" transform="translate(124,97)"/>
<path d="M0 0 C0.33 0 0.66 0 1 0 C1.01417969 0.89203125 1.02835937 1.7840625 1.04296875 2.703125 C1.09066406 3.87359375 1.13835937 5.0440625 1.1875 6.25 C1.22230469 7.41015625 1.25710937 8.5703125 1.29296875 9.765625 C2.18502206 13.84639928 3.55471307 14.77459985 7 17 C7.99 17.66 8.98 18.32 10 19 C5.85969567 18.75645269 3.4968723 18.36725344 0.125 15.875 C-2.45927758 12.37862445 -3 10.33639416 -3 6 C-1.5625 2.5625 -1.5625 2.5625 0 0 Z " fill="#121211" transform="translate(92,35)"/>
<path d="M0 0 C2.4375 0.875 2.4375 0.875 4.4375 3.875 C4.703125 5.8125 4.703125 5.8125 4.6875 7.875 C4.69265625 8.555625 4.6978125 9.23625 4.703125 9.9375 C4.4375 11.875 4.4375 11.875 2.4375 14.875 C-0.5625 15.25 -0.5625 15.25 -3.5625 14.875 C-5.62770632 11.77719052 -5.85727024 10.9209519 -5.875 7.375 C-5.89175781 6.6015625 -5.90851563 5.828125 -5.92578125 5.03125 C-5.30473005 1.3450106 -3.7284471 -0.18187547 0 0 Z M-0.5625 1.875 C-0.8925 2.205 -1.2225 2.535 -1.5625 2.875 C-2.2225 2.875 -2.8825 2.875 -3.5625 2.875 C-4.96185013 5.67370027 -4.81515405 7.77998792 -4.5625 10.875 C-3.18743901 12.75390434 -3.18743901 12.75390434 -1.5625 13.875 C-1.2325 13.215 -0.9025 12.555 -0.5625 11.875 C0.4275 12.205 1.4175 12.535 2.4375 12.875 C3.82300197 10.10399606 3.6252467 7.9415294 3.4375 4.875 C2.7775 3.885 2.1175 2.895 1.4375 1.875 C0.7775 1.875 0.1175 1.875 -0.5625 1.875 Z " fill="#101010" transform="translate(128.5625,184.125)"/>
<path d="M0 0 C0.47050781 0.40992187 0.94101563 0.81984375 1.42578125 1.2421875 C2.04839844 1.78101562 2.67101562 2.31984375 3.3125 2.875 C4.23482422 3.67550781 4.23482422 3.67550781 5.17578125 4.4921875 C8.74158675 7.43951281 10.94879531 8.2749911 15.5 8.5625 C18.62282857 8.76817016 21.01652836 9.00550945 24 10 C24 10.66 24 11.32 24 12 C15.47762518 13.01815982 9.14850176 10.64878833 2 6 C0 3 0 3 0 0 Z " fill="#131312" transform="translate(87,99)"/>
<path d="M0 0 C2.5 0.125 2.5 0.125 3.5 1.125 C3.5979057 2.62238124 3.62974864 4.12442892 3.625 5.625 C3.62757812 6.4396875 3.63015625 7.254375 3.6328125 8.09375 C3.5 10.125 3.5 10.125 2.5 11.125 C0.50041636 11.16580783 -1.50045254 11.16754356 -3.5 11.125 C-3.5 10.795 -3.5 10.465 -3.5 10.125 C-1.85 9.795 -0.2 9.465 1.5 9.125 C1.5 8.465 1.5 7.805 1.5 7.125 C-0.15 6.795 -1.8 6.465 -3.5 6.125 C-3.542721 4.45888095 -3.54063832 2.79117115 -3.5 1.125 C-2.5 0.125 -2.5 0.125 0 0 Z " fill="#30302F" transform="translate(59.5,78.875)"/>
<path d="M0 0 C0.99 0.33 1.98 0.66 3 1 C-1.35434208 4.66497731 -6.02620854 7.69287168 -10.8125 10.75 C-11.60076172 11.25660156 -12.38902344 11.76320313 -13.20117188 12.28515625 C-15.13254374 13.52591636 -17.06550511 14.76411699 -19 16 C-19.99 15.34 -20.98 14.68 -22 14 C-21.47567383 13.68248779 -20.95134766 13.36497559 -20.41113281 13.0378418 C-18.02277579 11.58988055 -15.63637581 10.13872394 -13.25 8.6875 C-12.425 8.18798828 -11.6 7.68847656 -10.75 7.17382812 C-9.95078125 6.68720703 -9.1515625 6.20058594 -8.328125 5.69921875 C-7.5949707 5.25408936 -6.86181641 4.80895996 -6.10644531 4.3503418 C-3.94067899 3.02292489 -3.94067899 3.02292489 -1.91699219 1.26879883 C-1.28438477 0.85009521 -0.65177734 0.4313916 0 0 Z " fill="#DEDEDE" transform="translate(43,39)"/>
<path d="M0 0 C0.33 0 0.66 0 1 0 C1.3221077 6.03653699 1.56806924 10.83245145 -2 16 C-4.3125 18.4375 -4.3125 18.4375 -7 20 C-10.85701519 20 -12.45515869 19.47315166 -15.375 16.9375 C-15.91125 16.298125 -16.4475 15.65875 -17 15 C-16.01 15 -15.02 15 -14 15 C-13.34 15.66 -12.68 16.32 -12 17 C-9.0850745 17.5838196 -9.0850745 17.5838196 -6 17 C-3.24778468 14.76847407 -2.17442861 13.01010021 -1.5703125 9.51171875 C-1.4017231 7.74663887 -1.26869533 5.97770806 -1.17578125 4.20703125 C-1 2 -1 2 0 0 Z " fill="#313130" transform="translate(116,191)"/>
<path d="M0 0 C4.55555556 0.55555556 4.55555556 0.55555556 6 2 C6.04092937 4.33297433 6.04241723 6.66705225 6 9 C5.01 9.495 5.01 9.495 4 10 C4 9.01 4 8.02 4 7 C2.35 6.67 0.7 6.34 -1 6 C-1.625 4.125 -1.625 4.125 -2 2 C-1.34 1.34 -0.68 0.68 0 0 Z " fill="#848483" transform="translate(152,79)"/>
<path d="M0 0 C0.33 0 0.66 0 1 0 C0.96744792 1.98567708 0.93489583 3.97135417 0.90234375 5.95703125 C0.91736783 8.20305461 0.91736783 8.20305461 2 11 C1 12 1 12 -2.0625 12.0625 C-3.031875 12.041875 -4.00125 12.02125 -5 12 C-5 9.36 -5 6.72 -5 4 C-3.68 4 -2.36 4 -1 4 C-0.67 2.68 -0.34 1.36 0 0 Z " fill="#262624" transform="translate(173,140)"/>
<path d="M0 0 C1.9480957 0.00483398 1.9480957 0.00483398 3.93554688 0.00976562 C5.30729233 0.01812094 6.67903712 0.02658588 8.05078125 0.03515625 C9.4342432 0.0401729 10.81770688 0.04473552 12.20117188 0.04882812 C15.5885852 0.06063096 18.97591158 0.07709606 22.36328125 0.09765625 C22.36328125 0.42765625 22.36328125 0.75765625 22.36328125 1.09765625 C21.51733398 1.13524048 21.51733398 1.13524048 20.65429688 1.17358398 C18.05713243 1.29083926 15.46021815 1.41296891 12.86328125 1.53515625 C11.97640625 1.57447266 11.08953125 1.61378906 10.17578125 1.65429688 C6.03863653 1.85202806 1.96614996 2.11321536 -2.13671875 2.69140625 C-5.58178971 3.09128056 -6.85957648 3.06479869 -9.63671875 1.09765625 C-6.21920222 -0.04151593 -3.60183938 -0.01572856 0 0 Z " fill="#8E8E8E" transform="translate(95.63671875,59.90234375)"/>
<path d="M0 0 C4.11526292 0.64173654 7.30388435 2.86986158 10.75 5.0625 C11.35199219 5.43955078 11.95398438 5.81660156 12.57421875 6.20507812 C14.05249143 7.13193163 15.52666089 8.06532389 17 9 C16.67 9.99 16.34 10.98 16 12 C13.32613853 10.38661617 10.66226511 8.75743621 8 7.125 C7.236875 6.66480469 6.47375 6.20460937 5.6875 5.73046875 C4.965625 5.28574219 4.24375 4.84101563 3.5 4.3828125 C2.8296875 3.97434082 2.159375 3.56586914 1.46875 3.14501953 C0.9840625 2.76716309 0.499375 2.38930664 0 2 C0 1.34 0 0.68 0 0 Z " fill="#DFDFDF" transform="translate(57,204)"/>
<path d="M0 0 C1.65 0 3.3 0 5 0 C5.33 1.65 5.66 3.3 6 5 C5.34 5 4.68 5 4 5 C4 5.99 4 6.98 4 8 C2.68 8 1.36 8 0 8 C0 5.36 0 2.72 0 0 Z " fill="#141412" transform="translate(122,135)"/>
<path d="M0 0 C1.98 0 3.96 0 6 0 C5.125 4.75 5.125 4.75 4 7 C2.68 7 1.36 7 0 7 C0 4.69 0 2.38 0 0 Z " fill="#10100E" transform="translate(144,135)"/>
<path d="M0 0 C4.11526292 0.64173654 7.30388435 2.86986158 10.75 5.0625 C11.35199219 5.43955078 11.95398438 5.81660156 12.57421875 6.20507812 C14.05249143 7.13193163 15.52666089 8.06532389 17 9 C16.34 9.66 15.68 10.32 15 11 C12.68368391 9.54744565 10.371983 8.08834588 8.0625 6.625 C7.40314453 6.2125 6.74378906 5.8 6.06445312 5.375 C1.11328125 2.2265625 1.11328125 2.2265625 0 0 Z " fill="#EAEAEA" transform="translate(41,194)"/>
<path d="M0 0 C2 2 2 2 3.4375 5.4375 C4.75661121 8.44507356 5.51995882 9.99234762 8 12 C7.67 12.99 7.34 13.98 7 15 C1.16242661 10.69863014 1.16242661 10.69863014 0 7 C-0.0777346 4.66796188 -0.08967728 2.33160941 0 0 Z " fill="#D9D9D9" transform="translate(14,168)"/>
<path d="M0 0 C2.97752446 0.33083605 4.81374721 0.87415352 7.3125 2.5625 C9.78719807 6.13706388 9.28590207 8.71146895 9 13 C8.67 13 8.34 13 8 13 C7.7525 12.0925 7.505 11.185 7.25 10.25 C5.7154591 6.26019366 3.83872404 3.91936202 0 2 C0 1.34 0 0.68 0 0 Z " fill="#F2F2F2" transform="translate(130,72)"/>
<path d="M0 0 C3 1 3 1 4.25 2.625 C5.31881981 6.00959607 4.76130536 8.57412586 4 12 C3.34 12.66 2.68 13.32 2 14 C1.93941406 13.32453125 1.87882812 12.6490625 1.81640625 11.953125 C1.73261719 11.06109375 1.64882812 10.1690625 1.5625 9.25 C1.48128906 8.36828125 1.40007812 7.4865625 1.31640625 6.578125 C1.03761535 4.30649548 0.61209423 2.20148177 0 0 Z " fill="#252523" transform="translate(105,185)"/>
<path d="M0 0 C3.375 0.25 3.375 0.25 7 1 C8.4375 3.0625 8.4375 3.0625 9 5 C5.86501708 6.85776765 3.62528568 7.20140476 0 7 C3 5 3 5 6 4 C4.02 3.34 2.04 2.68 0 2 C0 1.34 0 0.68 0 0 Z " fill="#303030" transform="translate(121,62)"/>
<path d="M0 0 C0.66 0.33 1.32 0.66 2 1 C2 4.3 2 7.6 2 11 C-1 8 -1 8 -1.07421875 5.95703125 C-0.71614583 3.97135417 -0.35807292 1.98567708 0 0 Z " fill="#2C2C2B" transform="translate(90,38)"/>
<path d="M0 0 C3 1 3 1 4 3 C4.23076923 8.53846154 4.23076923 8.53846154 3 11 C2.34 11 1.68 11 1 11 C1.01160156 10.37351563 1.02320313 9.74703125 1.03515625 9.1015625 C1.04417969 8.28429687 1.05320313 7.46703125 1.0625 6.625 C1.07990234 5.40683594 1.07990234 5.40683594 1.09765625 4.1640625 C1.14466334 1.95062858 1.14466334 1.95062858 0 0 Z " fill="#E7E7E7" transform="translate(128,186)"/>
<path d="M0 0 C3 1 3 1 4 3 C4.23076923 8.53846154 4.23076923 8.53846154 3 11 C2.34 11 1.68 11 1 11 C1.01160156 10.37351563 1.02320312 9.74703125 1.03515625 9.1015625 C1.04417969 8.28429687 1.05320312 7.46703125 1.0625 6.625 C1.07990234 5.40683594 1.07990234 5.40683594 1.09765625 4.1640625 C1.14466334 1.95062858 1.14466334 1.95062858 0 0 Z " fill="#E6E6E6" transform="translate(86,186)"/>
<path d="M0 0 C2.97 0.33 5.94 0.66 9 1 C9 1.66 9 2.32 9 3 C5.7 3 2.4 3 -1 3 C-0.67 2.01 -0.34 1.02 0 0 Z " fill="#50504E" transform="translate(102,108)"/>
<path d="M0 0 C2.475 0.495 2.475 0.495 5 1 C5 1.99 5 2.98 5 4 C3.68 4.33 2.36 4.66 1 5 C0.67 3.35 0.34 1.7 0 0 Z " fill="#EFEFEF" transform="translate(57,80)"/>
<path d="M0 0 C6.75 -0.125 6.75 -0.125 9 1 C9 1.66 9 2.32 9 3 C5.7 2.67 2.4 2.34 -1 2 C-0.67 1.34 -0.34 0.68 0 0 Z " fill="#F6F6F6" transform="translate(105,2)"/>
<path d="M0 0 C0.66 0 1.32 0 2 0 C1.67 2.97 1.34 5.94 1 9 C0.34 8.67 -0.32 8.34 -1 8 C-1.125 2.25 -1.125 2.25 0 0 Z " fill="#EDEDED" transform="translate(125,187)"/>
<path d="M0 0 C0.66 0 1.32 0 2 0 C1.67 2.97 1.34 5.94 1 9 C0.34 8.67 -0.32 8.34 -1 8 C-1.125 2.25 -1.125 2.25 0 0 Z " fill="#EBEBEA" transform="translate(83,187)"/>
<path d="M0 0 C2.125 0.375 2.125 0.375 4 1 C3.67 2.65 3.34 4.3 3 6 C1.68 5.01 0.36 4.02 -1 3 C-1.33 3.66 -1.66 4.32 -2 5 C-2 2 -2 2 0 0 Z " fill="#272727" transform="translate(126,184)"/>
<path d="M0 0 C2.6855594 2.6855594 3.06049974 5.37621328 4 9 C3.01 9 2.02 9 1 9 C-0.4783226 6.04335481 -0.06032783 3.25770263 0 0 Z " fill="#E5E5E5" transform="translate(14,168)"/>
<path d="M0 0 C0.66 0 1.32 0 2 0 C2 2.31 2 4.62 2 7 C1.566875 6.54625 1.13375 6.0925 0.6875 5.625 C-1.10798342 3.79975666 -1.10798342 3.79975666 -4 2 C-2.68 2 -1.36 2 0 2 C0 1.34 0 0.68 0 0 Z " fill="#C5C5C5" transform="translate(148,140)"/>
<path d="M0 0 C-0.33 1.65 -0.66 3.3 -1 5 C-1.66 5 -2.32 5 -3 5 C-3 4.01 -3 3.02 -3 2 C-4.98 2 -6.96 2 -9 2 C-9 1.67 -9 1.34 -9 1 C-5.94152152 0.45627049 -3.11227195 0 0 0 Z " fill="#BBBBBB" transform="translate(153,133)"/>
<path d="M0 0 C0.66 0 1.32 0 2 0 C4.01782732 2.90567134 5.35494404 5.51669784 6 9 C0.42857143 3.85714286 0.42857143 3.85714286 0 0 Z " fill="#BDBDBD" transform="translate(82,95)"/>
<path d="M0 0 C2.31 1.98 4.62 3.96 7 6 C6.34 6.66 5.68 7.32 5 8 C2.5 5.6875 2.5 5.6875 0 3 C0 2.01 0 1.02 0 0 Z " fill="#242423" transform="translate(87,99)"/>
</svg>
